<mxfile host="app.diagrams.net" modified="2023-11-19T15:26:50.111Z" agent="Mozilla/5.0 (Windows NT 10.0; Win64; x64) AppleWebKit/537.36 (KHTML, like Gecko) Chrome/118.0.0.0 Safari/537.36 OPR/104.0.0.0" etag="ovqV_h7UbWDV30v2vv1u" version="22.1.3" type="device">
  <diagram name="Page-1" id="VgRbVBYqb3lO9fXJKQTR">
    <mxGraphModel dx="1378" dy="804" grid="1" gridSize="10" guides="1" tooltips="1" connect="1" arrows="1" fold="1" page="1" pageScale="1" pageWidth="827" pageHeight="1169" math="0" shadow="0">
      <root>
        <mxCell id="0" />
        <mxCell id="1" parent="0" />
        <mxCell id="p1OhsZ13mylWOnWi1Tzi-1" value="UC01: Autenticar utilizador" style="text;html=1;strokeColor=none;fillColor=none;align=center;verticalAlign=middle;whiteSpace=wrap;rounded=0;fontStyle=1;fontSize=14;" parent="1" vertex="1">
          <mxGeometry x="319" y="10" width="190" height="30" as="geometry" />
        </mxCell>
        <mxCell id="p1OhsZ13mylWOnWi1Tzi-2" value=":Utilizador" style="shape=umlActor;verticalLabelPosition=bottom;verticalAlign=top;html=1;outlineConnect=0;fontStyle=1;fontSize=17;" parent="1" vertex="1">
          <mxGeometry x="100" y="40" width="60" height="120" as="geometry" />
        </mxCell>
        <mxCell id="p1OhsZ13mylWOnWi1Tzi-3" value=":Sistema" style="rounded=0;whiteSpace=wrap;html=1;fontStyle=1;fontSize=17;" parent="1" vertex="1">
          <mxGeometry x="600" y="130" width="120" height="60" as="geometry" />
        </mxCell>
        <mxCell id="p1OhsZ13mylWOnWi1Tzi-4" value="" style="endArrow=none;dashed=1;html=1;rounded=0;fontStyle=1;fontSize=16;strokeWidth=1;" parent="1" edge="1">
          <mxGeometry width="50" height="50" relative="1" as="geometry">
            <mxPoint x="130" y="201" as="sourcePoint" />
            <mxPoint x="130" y="661" as="targetPoint" />
          </mxGeometry>
        </mxCell>
        <mxCell id="p1OhsZ13mylWOnWi1Tzi-5" value="" style="endArrow=none;dashed=1;html=1;rounded=0;fontStyle=1;fontSize=16;strokeWidth=1;" parent="1" edge="1">
          <mxGeometry width="50" height="50" relative="1" as="geometry">
            <mxPoint x="659.5" y="201" as="sourcePoint" />
            <mxPoint x="659.5" y="651" as="targetPoint" />
          </mxGeometry>
        </mxCell>
        <mxCell id="p1OhsZ13mylWOnWi1Tzi-6" value="" style="endArrow=classic;html=1;rounded=0;strokeWidth=2;" parent="1" edge="1">
          <mxGeometry width="50" height="50" relative="1" as="geometry">
            <mxPoint x="130" y="216" as="sourcePoint" />
            <mxPoint x="660" y="216" as="targetPoint" />
          </mxGeometry>
        </mxCell>
        <mxCell id="p1OhsZ13mylWOnWi1Tzi-7" value="IniciarSessao(nome, password)" style="text;html=1;strokeColor=none;fillColor=none;align=center;verticalAlign=middle;whiteSpace=wrap;rounded=0;fontStyle=0" parent="1" vertex="1">
          <mxGeometry x="302.5" y="190" width="185" height="30" as="geometry" />
        </mxCell>
        <mxCell id="p1OhsZ13mylWOnWi1Tzi-16" value="VerificarUtilizador()" style="html=1;align=left;spacingLeft=2;endArrow=block;rounded=0;edgeStyle=orthogonalEdgeStyle;curved=0;rounded=0;strokeWidth=2;" parent="1" edge="1">
          <mxGeometry relative="1" as="geometry">
            <mxPoint x="660" y="240" as="sourcePoint" />
            <Array as="points">
              <mxPoint x="690" y="240" />
              <mxPoint x="690" y="290" />
              <mxPoint x="665" y="290" />
            </Array>
            <mxPoint x="660" y="290" as="targetPoint" />
          </mxGeometry>
        </mxCell>
        <mxCell id="p1OhsZ13mylWOnWi1Tzi-17" value="alt" style="shape=umlFrame;whiteSpace=wrap;html=1;pointerEvents=0;strokeWidth=3;fontStyle=1;fontSize=13;" parent="1" vertex="1">
          <mxGeometry x="60" y="309" width="670" height="291" as="geometry" />
        </mxCell>
        <mxCell id="p1OhsZ13mylWOnWi1Tzi-19" value="[Utilizador Registado]" style="text;html=1;strokeColor=none;fillColor=none;align=center;verticalAlign=middle;whiteSpace=wrap;rounded=0;fontStyle=1" parent="1" vertex="1">
          <mxGeometry x="332" y="309" width="126" height="30" as="geometry" />
        </mxCell>
        <mxCell id="p1OhsZ13mylWOnWi1Tzi-21" value="alt" style="shape=umlFrame;whiteSpace=wrap;html=1;pointerEvents=0;strokeWidth=3;fontStyle=1;fontSize=13;" parent="1" vertex="1">
          <mxGeometry x="90" y="390" width="600" height="130" as="geometry" />
        </mxCell>
        <mxCell id="p1OhsZ13mylWOnWi1Tzi-22" value="[Tipo de Utilizador: Farmacêutico]" style="text;html=1;strokeColor=none;fillColor=none;align=center;verticalAlign=middle;whiteSpace=wrap;rounded=0;fontStyle=1" parent="1" vertex="1">
          <mxGeometry x="288.5" y="390" width="213" height="30" as="geometry" />
        </mxCell>
        <mxCell id="p1OhsZ13mylWOnWi1Tzi-26" value="Informa Inicio de Sessão Autorizado" style="html=1;verticalAlign=bottom;endArrow=open;dashed=1;endSize=8;curved=0;rounded=0;exitX=0;exitY=1;exitDx=0;exitDy=-5;fontStyle=0;strokeWidth=2;fontSize=12;" parent="1" edge="1">
          <mxGeometry relative="1" as="geometry">
            <mxPoint x="130" y="360" as="targetPoint" />
            <mxPoint x="660" y="360" as="sourcePoint" />
            <mxPoint as="offset" />
          </mxGeometry>
        </mxCell>
        <mxCell id="p1OhsZ13mylWOnWi1Tzi-27" value="Mostra Opções de Farmacéutico" style="html=1;verticalAlign=bottom;endArrow=open;dashed=1;endSize=8;curved=0;rounded=0;fontStyle=0;strokeWidth=2;fontSize=12;" parent="1" edge="1">
          <mxGeometry x="-0.0007" relative="1" as="geometry">
            <mxPoint x="130" y="436" as="targetPoint" />
            <mxPoint x="660" y="436" as="sourcePoint" />
            <mxPoint as="offset" />
          </mxGeometry>
        </mxCell>
        <mxCell id="p1OhsZ13mylWOnWi1Tzi-30" value="" style="endArrow=none;dashed=1;html=1;rounded=0;entryX=1.002;entryY=0.535;entryDx=0;entryDy=0;entryPerimeter=0;" parent="1" target="p1OhsZ13mylWOnWi1Tzi-21" edge="1">
          <mxGeometry width="50" height="50" relative="1" as="geometry">
            <mxPoint x="90" y="460" as="sourcePoint" />
            <mxPoint x="660" y="460" as="targetPoint" />
          </mxGeometry>
        </mxCell>
        <mxCell id="p1OhsZ13mylWOnWi1Tzi-31" value="[Tipo de Utilizador: Indústria]" style="text;html=1;strokeColor=none;fillColor=none;align=center;verticalAlign=middle;whiteSpace=wrap;rounded=0;fontStyle=1" parent="1" vertex="1">
          <mxGeometry x="288.5" y="460" width="213" height="30" as="geometry" />
        </mxCell>
        <mxCell id="p1OhsZ13mylWOnWi1Tzi-32" value="Mostra as Opções da Indústria" style="html=1;verticalAlign=bottom;endArrow=open;dashed=1;endSize=8;curved=0;rounded=0;fontStyle=0;strokeWidth=2;fontSize=12;" parent="1" edge="1">
          <mxGeometry relative="1" as="geometry">
            <mxPoint x="130" y="506" as="targetPoint" />
            <mxPoint x="660" y="506" as="sourcePoint" />
            <mxPoint as="offset" />
          </mxGeometry>
        </mxCell>
        <mxCell id="p1OhsZ13mylWOnWi1Tzi-33" value="" style="endArrow=none;dashed=1;html=1;rounded=0;entryX=0.997;entryY=0.787;entryDx=0;entryDy=0;entryPerimeter=0;" parent="1" target="p1OhsZ13mylWOnWi1Tzi-17" edge="1">
          <mxGeometry width="50" height="50" relative="1" as="geometry">
            <mxPoint x="60" y="540" as="sourcePoint" />
            <mxPoint x="661" y="540" as="targetPoint" />
          </mxGeometry>
        </mxCell>
        <mxCell id="p1OhsZ13mylWOnWi1Tzi-34" value="[Utilizador Não Registado]" style="text;html=1;strokeColor=none;fillColor=none;align=center;verticalAlign=middle;whiteSpace=wrap;rounded=0;fontStyle=1" parent="1" vertex="1">
          <mxGeometry x="311" y="540" width="168" height="30" as="geometry" />
        </mxCell>
        <mxCell id="p1OhsZ13mylWOnWi1Tzi-35" value="Informa que o Utilizador não está registado" style="html=1;verticalAlign=bottom;endArrow=open;dashed=1;endSize=8;curved=0;rounded=0;exitX=0;exitY=1;exitDx=0;exitDy=-5;fontStyle=0;strokeWidth=2;fontSize=12;" parent="1" edge="1">
          <mxGeometry relative="1" as="geometry">
            <mxPoint x="130" y="584" as="targetPoint" />
            <mxPoint x="660" y="584" as="sourcePoint" />
            <mxPoint as="offset" />
          </mxGeometry>
        </mxCell>
        <mxCell id="jqcsuom1HDFH8GSI37-H-1" value="&lt;h1 style=&quot;font-size: 26px;&quot;&gt;&lt;font style=&quot;font-size: 26px;&quot;&gt;Contrato UC01: IniciarSessão&lt;/font&gt;&lt;/h1&gt;&lt;p style=&quot;font-size: 26px;&quot;&gt;Operação: IniciarSessao(nome, password)&lt;/p&gt;&lt;p style=&quot;font-size: 26px;&quot;&gt;Referencias:Use Cases: Autenticar Utilizador&lt;/p&gt;&lt;p style=&quot;font-size: 26px;&quot;&gt;Pré-Condições: Verificar se o utilizador está registado&lt;/p&gt;&lt;p style=&quot;font-size: 26px;&quot;&gt;Pós-Condições: Um inicio de sessão foi criado e iniciado&lt;/p&gt;&lt;p style=&quot;font-size: 26px;&quot;&gt;&lt;br&gt;&lt;/p&gt;&lt;p style=&quot;font-size: 26px;&quot;&gt;&lt;span style=&quot;white-space: pre;&quot;&gt;&#x9;&lt;span style=&quot;white-space: pre;&quot;&gt;&#x9;&lt;/span&gt;&lt;span style=&quot;white-space: pre;&quot;&gt;&#x9;&lt;/span&gt; &lt;/span&gt;&amp;nbsp;&amp;nbsp;&lt;br&gt;&lt;/p&gt;&lt;p style=&quot;font-size: 26px;&quot;&gt;&lt;br&gt;&lt;/p&gt;" style="text;html=1;strokeColor=none;fillColor=none;spacing=5;spacingTop=-20;whiteSpace=wrap;overflow=hidden;rounded=0;" vertex="1" parent="1">
          <mxGeometry y="690" width="650" height="360" as="geometry" />
        </mxCell>
      </root>
    </mxGraphModel>
  </diagram>
</mxfile>
